<mxfile host="app.diagrams.net" modified="2023-11-10T03:27:30.323Z" agent="Mozilla/5.0 (Windows NT 10.0; Win64; x64) AppleWebKit/537.36 (KHTML, like Gecko) Chrome/119.0.0.0 Safari/537.36" etag="Xc7bSpQtHpsc_dOr1v1_" version="22.1.0" type="device">
  <diagram name="Page-1" id="H8KSui-eR_lLOX3qzS3R">
    <mxGraphModel dx="926" dy="543" grid="1" gridSize="10" guides="1" tooltips="1" connect="1" arrows="1" fold="1" page="1" pageScale="1" pageWidth="1100" pageHeight="850" math="0" shadow="0">
      <root>
        <mxCell id="0" />
        <mxCell id="1" parent="0" />
        <mxCell id="Whg_CYAEYx_SBVNUxTzN-1" value="r" style="ellipse;html=1;shape=startState;fillColor=#000000;strokeColor=#ff0000;" parent="1" vertex="1">
          <mxGeometry x="75" y="217.5" width="30" height="30" as="geometry" />
        </mxCell>
        <mxCell id="Whg_CYAEYx_SBVNUxTzN-30" value="Gas pressure below minimum &amp;amp;&amp;amp; Gas flowrate off" style="rounded=1;whiteSpace=wrap;html=1;" parent="1" vertex="1">
          <mxGeometry x="378.75" y="140" width="120" height="60" as="geometry" />
        </mxCell>
        <mxCell id="Whg_CYAEYx_SBVNUxTzN-33" value="Power Electrodes" style="swimlane;fontStyle=1;align=center;verticalAlign=middle;childLayout=stackLayout;horizontal=1;startSize=30;horizontalStack=0;resizeParent=0;resizeLast=1;container=0;collapsible=0;rounded=1;arcSize=30;swimlaneFillColor=#FFFFFF;dropTarget=0;" parent="1" vertex="1">
          <mxGeometry x="648.75" y="160" width="260" height="140" as="geometry" />
        </mxCell>
        <mxCell id="Whg_CYAEYx_SBVNUxTzN-34" value="entry/read power to set&lt;br&gt;do/power electrodes according to the read set&lt;br&gt;do/read electrode feedback&lt;br&gt;exit/set execution status according to electrode feedback" style="text;html=1;strokeColor=none;fillColor=none;align=center;verticalAlign=middle;spacingLeft=4;spacingRight=4;whiteSpace=wrap;overflow=hidden;rotatable=0;fontColor=#000000;" parent="Whg_CYAEYx_SBVNUxTzN-33" vertex="1">
          <mxGeometry y="30" width="260" height="110" as="geometry" />
        </mxCell>
        <mxCell id="Whg_CYAEYx_SBVNUxTzN-37" value="execution_status == True" style="rhombus;whiteSpace=wrap;html=1;" parent="1" vertex="1">
          <mxGeometry x="683.75" y="340" width="190" height="90" as="geometry" />
        </mxCell>
        <mxCell id="Whg_CYAEYx_SBVNUxTzN-38" value="" style="endArrow=classic;html=1;rounded=0;entryX=0.5;entryY=0;entryDx=0;entryDy=0;exitX=0.5;exitY=1;exitDx=0;exitDy=0;" parent="1" source="Whg_CYAEYx_SBVNUxTzN-34" target="Whg_CYAEYx_SBVNUxTzN-37" edge="1">
          <mxGeometry width="50" height="50" relative="1" as="geometry">
            <mxPoint x="778.75" y="310" as="sourcePoint" />
            <mxPoint x="688.75" y="270" as="targetPoint" />
          </mxGeometry>
        </mxCell>
        <mxCell id="Whg_CYAEYx_SBVNUxTzN-39" value="" style="endArrow=classic;html=1;rounded=0;exitX=1;exitY=0.5;exitDx=0;exitDy=0;entryX=1;entryY=0.5;entryDx=0;entryDy=0;" parent="1" source="Whg_CYAEYx_SBVNUxTzN-37" target="Whg_CYAEYx_SBVNUxTzN-34" edge="1">
          <mxGeometry width="50" height="50" relative="1" as="geometry">
            <mxPoint x="638.75" y="320" as="sourcePoint" />
            <mxPoint x="688.75" y="270" as="targetPoint" />
            <Array as="points">
              <mxPoint x="938.75" y="385" />
              <mxPoint x="938.75" y="245" />
            </Array>
          </mxGeometry>
        </mxCell>
        <mxCell id="Whg_CYAEYx_SBVNUxTzN-42" value="" style="endArrow=classic;html=1;rounded=0;exitX=1;exitY=0.5;exitDx=0;exitDy=0;entryX=0;entryY=0.5;entryDx=0;entryDy=0;" parent="1" source="Whg_CYAEYx_SBVNUxTzN-1" target="Whg_CYAEYx_SBVNUxTzN-45" edge="1">
          <mxGeometry width="50" height="50" relative="1" as="geometry">
            <mxPoint x="518.75" y="427.5" as="sourcePoint" />
            <mxPoint x="218.75" y="232.5" as="targetPoint" />
          </mxGeometry>
        </mxCell>
        <mxCell id="Whg_CYAEYx_SBVNUxTzN-45" value="Gas monitoring" style="rounded=1;whiteSpace=wrap;html=1;" parent="1" vertex="1">
          <mxGeometry x="148.75" y="205" width="90" height="55" as="geometry" />
        </mxCell>
        <mxCell id="Whg_CYAEYx_SBVNUxTzN-48" value="Read gas&lt;br&gt;&amp;nbsp;pressure&lt;br&gt;and&amp;nbsp;&lt;br&gt;gas&lt;br&gt;flow rate" style="text;html=1;strokeColor=none;fillColor=none;align=center;verticalAlign=middle;whiteSpace=wrap;rounded=0;" parent="1" vertex="1">
          <mxGeometry x="260" y="130" width="50" height="87.5" as="geometry" />
        </mxCell>
        <mxCell id="Whg_CYAEYx_SBVNUxTzN-54" value="" style="shape=line;html=1;strokeWidth=5;strokeColor=default;direction=south;" parent="1" vertex="1">
          <mxGeometry x="318.75" y="140" width="10" height="200" as="geometry" />
        </mxCell>
        <mxCell id="Whg_CYAEYx_SBVNUxTzN-56" value="Gas pressure above maximum &amp;amp;&amp;amp; Gas flowrate on" style="rounded=1;whiteSpace=wrap;html=1;" parent="1" vertex="1">
          <mxGeometry x="378.75" y="280" width="120" height="60" as="geometry" />
        </mxCell>
        <mxCell id="Whg_CYAEYx_SBVNUxTzN-62" value="Power electrodes off" style="text;html=1;strokeColor=none;fillColor=none;align=center;verticalAlign=middle;whiteSpace=wrap;rounded=0;" parent="1" vertex="1">
          <mxGeometry x="528.75" y="320" width="90" height="30" as="geometry" />
        </mxCell>
        <mxCell id="Whg_CYAEYx_SBVNUxTzN-63" value="Power electrodes on" style="text;html=1;strokeColor=none;fillColor=none;align=center;verticalAlign=middle;whiteSpace=wrap;rounded=0;" parent="1" vertex="1">
          <mxGeometry x="528.75" y="130" width="90" height="30" as="geometry" />
        </mxCell>
        <mxCell id="Whg_CYAEYx_SBVNUxTzN-64" value="No" style="text;html=1;strokeColor=none;fillColor=none;align=center;verticalAlign=middle;whiteSpace=wrap;rounded=0;" parent="1" vertex="1">
          <mxGeometry x="873.75" y="360" width="30" height="20" as="geometry" />
        </mxCell>
        <mxCell id="Whg_CYAEYx_SBVNUxTzN-65" value="Yes" style="text;html=1;strokeColor=none;fillColor=none;align=center;verticalAlign=middle;whiteSpace=wrap;rounded=0;" parent="1" vertex="1">
          <mxGeometry x="788.75" y="430" width="30" height="20" as="geometry" />
        </mxCell>
        <mxCell id="Whg_CYAEYx_SBVNUxTzN-66" value="" style="endArrow=classic;html=1;rounded=0;exitX=0.5;exitY=1;exitDx=0;exitDy=0;entryX=0;entryY=0.5;entryDx=0;entryDy=0;" parent="1" source="Whg_CYAEYx_SBVNUxTzN-37" edge="1">
          <mxGeometry width="50" height="50" relative="1" as="geometry">
            <mxPoint x="938.75" y="450" as="sourcePoint" />
            <mxPoint x="878.75" y="515" as="targetPoint" />
            <Array as="points">
              <mxPoint x="778.75" y="515" />
            </Array>
          </mxGeometry>
        </mxCell>
        <mxCell id="Whg_CYAEYx_SBVNUxTzN-67" value="" style="ellipse;html=1;shape=endState;fillColor=#000000;strokeColor=#ff0000;" parent="1" vertex="1">
          <mxGeometry x="888.75" y="500" width="30" height="30" as="geometry" />
        </mxCell>
        <mxCell id="Whg_CYAEYx_SBVNUxTzN-68" value="&lt;h1&gt;Gas pressure and flowrate control system state machine diagram&lt;/h1&gt;" style="text;html=1;strokeColor=none;fillColor=none;spacing=5;spacingTop=-20;whiteSpace=wrap;overflow=hidden;rounded=0;" parent="1" vertex="1">
          <mxGeometry x="56.25" y="30" width="757.5" height="40" as="geometry" />
        </mxCell>
        <mxCell id="Whg_CYAEYx_SBVNUxTzN-69" value="START" style="text;html=1;strokeColor=none;fillColor=none;align=center;verticalAlign=middle;whiteSpace=wrap;rounded=0;" parent="1" vertex="1">
          <mxGeometry x="60" y="187.5" width="60" height="30" as="geometry" />
        </mxCell>
        <mxCell id="Whg_CYAEYx_SBVNUxTzN-70" value="END" style="text;html=1;strokeColor=none;fillColor=none;align=center;verticalAlign=middle;whiteSpace=wrap;rounded=0;" parent="1" vertex="1">
          <mxGeometry x="813.75" y="510" width="60" height="30" as="geometry" />
        </mxCell>
        <mxCell id="tmKxKJ3lB_SSCB5xTsr8-3" value="" style="endArrow=classic;html=1;rounded=0;exitX=1;exitY=0.5;exitDx=0;exitDy=0;entryX=0.461;entryY=0.652;entryDx=0;entryDy=0;entryPerimeter=0;" edge="1" parent="1" source="Whg_CYAEYx_SBVNUxTzN-45" target="Whg_CYAEYx_SBVNUxTzN-54">
          <mxGeometry width="50" height="50" relative="1" as="geometry">
            <mxPoint x="520" y="310" as="sourcePoint" />
            <mxPoint x="570" y="260" as="targetPoint" />
          </mxGeometry>
        </mxCell>
        <mxCell id="tmKxKJ3lB_SSCB5xTsr8-4" value="" style="endArrow=classic;html=1;rounded=0;exitX=0.75;exitY=0.5;exitDx=0;exitDy=0;exitPerimeter=0;entryX=0;entryY=0.5;entryDx=0;entryDy=0;" edge="1" parent="1" source="Whg_CYAEYx_SBVNUxTzN-54" target="Whg_CYAEYx_SBVNUxTzN-56">
          <mxGeometry width="50" height="50" relative="1" as="geometry">
            <mxPoint x="510" y="310" as="sourcePoint" />
            <mxPoint x="560" y="260" as="targetPoint" />
            <Array as="points">
              <mxPoint x="340" y="290" />
              <mxPoint x="340" y="310" />
            </Array>
          </mxGeometry>
        </mxCell>
        <mxCell id="tmKxKJ3lB_SSCB5xTsr8-5" value="" style="endArrow=classic;html=1;rounded=0;exitX=0.25;exitY=0.5;exitDx=0;exitDy=0;exitPerimeter=0;entryX=0;entryY=0.5;entryDx=0;entryDy=0;" edge="1" parent="1" source="Whg_CYAEYx_SBVNUxTzN-54" target="Whg_CYAEYx_SBVNUxTzN-30">
          <mxGeometry width="50" height="50" relative="1" as="geometry">
            <mxPoint x="510" y="310" as="sourcePoint" />
            <mxPoint x="560" y="260" as="targetPoint" />
            <Array as="points">
              <mxPoint x="340" y="190" />
              <mxPoint x="340" y="170" />
            </Array>
          </mxGeometry>
        </mxCell>
        <mxCell id="tmKxKJ3lB_SSCB5xTsr8-6" value="" style="endArrow=classic;html=1;rounded=0;exitX=1;exitY=0.5;exitDx=0;exitDy=0;entryX=0;entryY=0.25;entryDx=0;entryDy=0;" edge="1" parent="1" source="Whg_CYAEYx_SBVNUxTzN-30" target="Whg_CYAEYx_SBVNUxTzN-34">
          <mxGeometry width="50" height="50" relative="1" as="geometry">
            <mxPoint x="510" y="310" as="sourcePoint" />
            <mxPoint x="560" y="260" as="targetPoint" />
            <Array as="points">
              <mxPoint x="590" y="170" />
              <mxPoint x="590" y="218" />
            </Array>
          </mxGeometry>
        </mxCell>
        <mxCell id="tmKxKJ3lB_SSCB5xTsr8-7" value="" style="endArrow=classic;html=1;rounded=0;exitX=1;exitY=0.5;exitDx=0;exitDy=0;entryX=0.005;entryY=0.636;entryDx=0;entryDy=0;entryPerimeter=0;" edge="1" parent="1" source="Whg_CYAEYx_SBVNUxTzN-56" target="Whg_CYAEYx_SBVNUxTzN-34">
          <mxGeometry width="50" height="50" relative="1" as="geometry">
            <mxPoint x="510" y="310" as="sourcePoint" />
            <mxPoint x="560" y="260" as="targetPoint" />
            <Array as="points">
              <mxPoint x="590" y="310" />
              <mxPoint x="590" y="260" />
            </Array>
          </mxGeometry>
        </mxCell>
      </root>
    </mxGraphModel>
  </diagram>
</mxfile>
